<?xml version="1.0" encoding="UTF-8"?>
<svg id="Layer_1" data-name="Layer 1" xmlns="http://www.w3.org/2000/svg" viewBox="0 0 999.99 999.99">
  <defs>
    <style>
      .cls-1 {
        fill: #084734;
      }
    </style>
  </defs>
  <g>
    <path class="cls-1" d="M189.31,544.45c-2.62,1.61-6.89,3.76-12.46,4.5-5.31.7-13.39.33-14.02-2.25-.55-2.22,4.42-5.92,9.35-7.44,8.62-2.67,17.11,1.33,17.14,1.21.03-.13-10.72-2.29-21.29-7.44-6.12-2.98-17.63-9.62-16.62-12.64.93-2.77,12.66-3.14,22.16,1.73,10.65,5.46,15.74,16.1,15.75,16.1.01,0-8.44-10.34-15.41-22.16-.78-1.33-13.91-23.77-10.56-26.31,2.33-1.77,12.99,5.81,19.56,16.27,8.78,13.97,8.35,30.05,7.93,30.12-.45.07-7.05-29.44-6.42-36.02,1.1-11.45,5.98-21.77,8.19-22.59,0,0,.02,5.09,1.38,64.14"/>
    <path class="cls-1" d="M196.77,540.36c11.67-10.95,15.66-14.78,23.33-25.64,4.85-6.88,10.17-19.3,8.84-30.28-1.16-9.64-5.54-18.14-17.32-19.38-5.55-.58-12.39,2.96-16.69,11.01l1.85,64.3Z"/>
  </g>
  <g>
    <g>
      <path class="cls-1" d="M278.21,542.41c-3.21,1.07-6.99,1.6-11.33,1.6s-8.48-.9-11.98-2.71c-3.51-1.8-6.48-4.33-8.93-7.57-2.44-3.24-4.31-7.13-5.61-11.68-1.3-4.54-1.96-9.59-1.96-15.14s.65-10.61,1.96-15.19c1.3-4.58,3.16-8.52,5.57-11.83,2.41-3.31,5.3-5.87,8.67-7.67,3.38-1.8,7.13-2.71,11.28-2.71,4.81,0,8.84.82,12.08,2.46,3.24,1.64,5.8,3.69,7.67,6.17l-8.72,11.73c-2.42-3.34-5.71-5.02-9.87-5.02-2.22,0-4.13.59-5.74,1.76-1.61,1.17-2.96,2.76-4.03,4.76s-1.86,4.35-2.37,7.02c-.5,2.68-.75,5.52-.75,8.52s.23,5.85.7,8.52,1.23,5.01,2.27,7.02c1.04,2.01,2.35,3.61,3.93,4.81,1.58,1.2,3.48,1.8,5.7,1.8,2.42,0,4.3-.5,5.65-1.5v-13.24h-7.62v-13.94h21.66v37.81c-2.27,1.74-5.01,3.14-8.22,4.21Z"/>
      <path class="cls-1" d="M297.36,489.97h15.24v8.83h.1c1.87-6.95,5.38-10.43,10.53-10.43.53,0,.97.02,1.3.05.33.03.73.12,1.2.25l-1,15.74c-.54-.13-1.05-.25-1.56-.35s-1.12-.15-1.86-.15c-1.34,0-2.51.35-3.51,1.05-1,.7-1.86,1.62-2.56,2.76-.7,1.14-1.24,2.47-1.6,4.01-.37,1.54-.55,3.11-.55,4.71v25.97h-15.75v-52.45Z"/>
      <path class="cls-1" d="M343.29,520.15c0,1.47.18,2.86.55,4.16.37,1.3.85,2.44,1.45,3.41.6.97,1.34,1.74,2.21,2.31.87.57,1.84.85,2.91.85,1.74,0,3.14-.57,4.21-1.7,1.07-1.14,1.91-2.47,2.51-4.01l11.53,6.52c-1.74,3.88-4.16,6.95-7.27,9.23-3.11,2.27-6.97,3.41-11.58,3.41-3.08,0-5.93-.6-8.57-1.8-2.64-1.2-4.95-2.99-6.92-5.37-1.97-2.37-3.51-5.3-4.61-8.77-1.1-3.48-1.66-7.49-1.66-12.03,0-4.28.52-8.17,1.56-11.68,1.04-3.51,2.51-6.48,4.41-8.92,1.9-2.44,4.16-4.33,6.77-5.67,2.61-1.34,5.48-2.01,8.62-2.01,3.61,0,6.68.7,9.23,2.11,2.54,1.4,4.63,3.32,6.27,5.77,1.64,2.44,2.82,5.35,3.56,8.72.74,3.38,1.11,7.07,1.11,11.08v4.41h-26.28ZM355.12,509.92c0-2.81-.43-5.15-1.3-7.02-.87-1.87-2.31-2.81-4.31-2.81-1.07,0-1.99.32-2.76.95-.77.64-1.42,1.44-1.95,2.41-.54.97-.94,2.04-1.21,3.21-.27,1.17-.4,2.25-.4,3.26h11.93Z"/>
      <path class="cls-1" d="M390.72,520.15c0,1.47.18,2.86.55,4.16.37,1.3.85,2.44,1.45,3.41.6.97,1.34,1.74,2.21,2.31.87.57,1.84.85,2.91.85,1.74,0,3.14-.57,4.21-1.7,1.07-1.14,1.91-2.47,2.51-4.01l11.53,6.52c-1.74,3.88-4.16,6.95-7.27,9.23-3.11,2.27-6.97,3.41-11.58,3.41-3.08,0-5.93-.6-8.57-1.8-2.64-1.2-4.95-2.99-6.92-5.37-1.97-2.37-3.51-5.3-4.61-8.77-1.1-3.48-1.66-7.49-1.66-12.03,0-4.28.52-8.17,1.56-11.68,1.04-3.51,2.51-6.48,4.41-8.92,1.9-2.44,4.16-4.33,6.77-5.67,2.61-1.34,5.48-2.01,8.62-2.01,3.61,0,6.68.7,9.23,2.11,2.54,1.4,4.63,3.32,6.27,5.77,1.64,2.44,2.82,5.35,3.56,8.72.74,3.38,1.11,7.07,1.11,11.08v4.41h-26.28ZM402.55,509.92c0-2.81-.43-5.15-1.3-7.02-.87-1.87-2.31-2.81-4.31-2.81-1.07,0-1.99.32-2.76.95-.77.64-1.42,1.44-1.95,2.41-.54.97-.94,2.04-1.21,3.21-.27,1.17-.4,2.25-.4,3.26h11.93Z"/>
      <path class="cls-1" d="M441.46,489.97v7.42h.2c.87-2.54,2.41-4.73,4.61-6.57,2.21-1.84,4.95-2.76,8.22-2.76,3.01,0,5.41.62,7.22,1.85,1.8,1.24,3.21,2.89,4.21,4.96,1,2.07,1.67,4.45,2.01,7.12.33,2.67.5,5.45.5,8.32v32.09h-15.74v-32.19c0-2.21-.32-4.14-.95-5.82-.64-1.67-1.89-2.51-3.76-2.51s-3.44.89-4.51,2.66c-1.07,1.77-1.6,4.1-1.6,6.97v30.88h-15.75v-52.45h15.34Z"/>
      <path class="cls-1" d="M505.23,542.51c-2.21,1-4.75,1.5-7.62,1.5-3.34,0-6.29-.69-8.83-2.06-2.54-1.37-4.68-3.29-6.42-5.76-1.74-2.47-3.06-5.42-3.96-8.83-.9-3.41-1.35-7.15-1.35-11.23s.47-7.8,1.4-11.18,2.27-6.3,4.01-8.78c1.74-2.47,3.89-4.4,6.47-5.77,2.57-1.37,5.53-2.05,8.87-2.05,2.94,0,5.48.54,7.62,1.6,2.14,1.07,3.81,2.27,5.01,3.61l-6.32,12.23c-.6-.93-1.34-1.67-2.21-2.21-.87-.53-1.84-.8-2.91-.8-1.94,0-3.56,1.17-4.86,3.51-1.3,2.34-1.96,5.62-1.96,9.83s.64,7.47,1.91,9.78c1.27,2.31,3.01,3.46,5.21,3.46,1.14,0,2.12-.28,2.96-.85.83-.57,1.52-1.32,2.05-2.25l6.32,12.13c-1.4,1.74-3.21,3.11-5.42,4.11Z"/>
      <path class="cls-1" d="M538.23,535.89c-.67,2.34-1.99,4.23-3.96,5.67-1.97,1.44-4.53,2.16-7.67,2.16-1.54,0-3.11-.27-4.71-.8s-3.08-1.42-4.41-2.66c-1.34-1.24-2.44-2.87-3.31-4.91-.87-2.04-1.3-4.56-1.3-7.57,0-3.61.65-6.58,1.96-8.93,1.3-2.34,3.01-4.21,5.11-5.61,2.11-1.4,4.5-2.39,7.17-2.96,2.67-.57,5.38-.85,8.12-.85h2.01v-.8c0-2.54-.59-4.38-1.75-5.51-1.17-1.14-2.73-1.7-4.66-1.7s-3.7.44-5.26,1.3c-1.57.87-2.93,1.97-4.06,3.31l-6.92-9.63c2.14-2.54,4.8-4.51,7.97-5.92s6.34-2.11,9.48-2.11c3.54,0,6.55.54,9.02,1.6,2.47,1.07,4.48,2.64,6.02,4.71,1.54,2.07,2.64,4.6,3.31,7.57.67,2.98,1,6.4,1,10.28v29.88h-12.94v-6.52h-.2ZM537.73,519.55h-2.81c-1.14,0-2.24.1-3.31.3-1.07.2-2.01.59-2.81,1.15-.8.57-1.44,1.3-1.9,2.21s-.7,2.06-.7,3.46c0,2.07.45,3.59,1.35,4.56.9.97,1.99,1.45,3.26,1.45,1.2,0,2.25-.3,3.16-.9.9-.6,1.62-1.39,2.16-2.36.53-.97.93-2.07,1.2-3.31.27-1.24.4-2.46.4-3.66v-2.91Z"/>
      <path class="cls-1" d="M563.1,489.97h15.24v8.83h.1c1.87-6.95,5.38-10.43,10.53-10.43.53,0,.97.02,1.3.05.33.03.73.12,1.2.25l-1,15.74c-.54-.13-1.05-.25-1.56-.35s-1.12-.15-1.86-.15c-1.34,0-2.51.35-3.51,1.05-1,.7-1.86,1.62-2.56,2.76-.7,1.14-1.24,2.47-1.6,4.01-.37,1.54-.55,3.11-.55,4.71v25.97h-15.75v-52.45Z"/>
      <path class="cls-1" d="M622.36,542.41v-6.32h-.2c-.74,2.14-1.96,4-3.66,5.57-1.7,1.57-4.16,2.36-7.37,2.36-2.74,0-5.2-.75-7.37-2.26-2.18-1.5-4-3.54-5.47-6.12-1.47-2.57-2.59-5.6-3.36-9.07-.77-3.48-1.15-7.19-1.15-11.13s.37-7.47,1.1-10.78c.73-3.31,1.84-6.17,3.31-8.57,1.47-2.41,3.29-4.29,5.47-5.67,2.17-1.37,4.66-2.05,7.47-2.05,2.61,0,4.86.67,6.77,2.01,1.9,1.34,3.16,2.98,3.76,4.91h.3v-28.68h15.55v75.81h-15.14ZM622.66,516.14c0-2.01-.14-3.86-.4-5.57-.27-1.7-.69-3.21-1.25-4.51-.57-1.31-1.27-2.32-2.11-3.06-.84-.73-1.82-1.1-2.96-1.1-1.2,0-2.22.37-3.06,1.1-.84.74-1.52,1.75-2.05,3.06-.54,1.3-.94,2.81-1.2,4.51-.27,1.7-.4,3.56-.4,5.57s.14,3.78.4,5.51c.27,1.74.67,3.26,1.2,4.56.53,1.3,1.22,2.32,2.05,3.06.83.74,1.86,1.1,3.06,1.1,1.14,0,2.12-.37,2.96-1.1.83-.73,1.54-1.76,2.11-3.06.57-1.3.99-2.82,1.25-4.56.27-1.74.4-3.57.4-5.51Z"/>
    </g>
    <g>
      <path class="cls-1" d="M677.18,540.58c-4.95,0-9.5-1.64-13.63-4.31-4.15-2.68-7.63-5.93-10.51-9.79-2.87-3.85-4.49-7.98-4.55-12.88-.06-4.91,1.35-9.8,4.91-14.23,3.55-4.42,8.93-7.83,15.11-10.31,6.18-2.49,12.32-3.74,18.07-3.98,3.75-.16,6.96.13,9.75.93,2.79.8,5.11,2.04,6.89,3.68,1.14,1.08,1.81,2.29,1.98,3.59.18,1.31-.07,2.57-.73,3.85-.84,1.63-2.18,3.11-3.88,4.44-1.7,1.33-3.62,2.24-5.88,2.71-.47.07-.9.12-1.29.13-1.45.06-2.39-.3-2.82-1.11-.43-.8-.56-1.86-.38-3.15.17-1.29.44-2.66.81-4.07.59-2.29.77-4.3.35-6.05-.41-1.75-2.14-2.63-5.25-2.65-.09,0-.17,0-.26.01-3.03.13-5.89,1.13-8.46,3.05-2.59,1.92-4.82,4.42-6.58,7.55-1.77,3.13-2.98,6.52-3.66,10.17-.58,3.1-.75,6.22-.56,9.4.19,3.18.97,6.18,2.17,8.96,1.2,2.78,2.79,5.14,4.71,6.99,1.91,1.85,4.14,2.82,6.59,2.75,1.22-.03,2.49-.37,3.8-.99,2.55-1.23,4.45-3.4,6.05-6.46,1.6-3.06,2.83-7.25,4.43-11.89.4-1.11.99-1.92,1.69-2.45.71-.53,1.41-.79,2.09-.8.74,0,1.33.31,1.78.94.45.64.53,1.55.32,2.76-2.73,6.37-4.84,12.75-8.78,16.89-3.95,4.14-8.86,6.33-14.3,6.29Z"/>
      <path class="cls-1" d="M724.39,543c-.3.03-.6.06-.9.09-4.99.51-9.68-1.36-13.2-5.54-4.16-4.95-6.89-12.83-5.56-20.18,4.42-24.63,27.83-37.96,7.28-60.12-1.96-2.1-3.8-3.31-5.14-3.32-.37,0-.78-.16-1.23-.48-.45-.31-.85-.67-1.2-1.07-.32-.37-.54-.72-.65-1.05-.11-.33,0-.5.36-.5,5.46.03,11.86.03,19.16,0,.47,0,1.01.18,1.62.55.61.36,1.12.75,1.54,1.16.46.45.74.84.86,1.17.12.34-.06.5-.53.5-1.78-.02-1.26,1.23.64,3.5,19.69,23.89-7.19,35.67-11.05,59.55-.54,3.32.07,6.46,1.01,9.01.94,2.55,2.19,4.55,3.42,5.75,1.22,1.2,2.31,1.77,3.11,1.72.81-.05,1.29-.6,1.49-1.59.2-.99,0-2.28-.46-3.83-.11-.37-.2-.66-.29-.88-.09-.22-.17-.47-.24-.75-.08-.32-.07-.57.01-.77.09-.2.24-.3.45-.3.34,0,.74.3,1.22.94.49.64.92,1.57,1.38,2.83.57,1.58,1.04,3.36,1.42,5.34.38,1.98.35,3.76-.24,5.3-.59,1.55-2.02,2.56-4.27,2.98Z"/>
      <path class="cls-1" d="M790.09,542.51c-2.56-.65-5.84-2.51-9.58-4.5-3.72-1.98-7.63-3.92-11.27-6.27-3.63-2.35-6.62-5.12-8.12-8.17-4.38-8.87.92-15.82,7.03-22.77,1.49-1.69,2.32-2.94,2.5-3.74.18-.79-.04-1.22-.61-1.27-.65-.06-1.62.32-2.97,1.12-2.02,1.23-4.3,3.16-6.53,5.84-1.26,1.51-2.78,3.59-3.92,6.32-1.2,2.9-1.57,5.44-1.59,7.49-.04,2.82.57,5.79,1.74,9.04,1.17,3.25,2.41,6.29,2.88,8.98.47,2.69-.48,4.64-3.23,5.54-.49.12-1,.19-1.5.22-2.4.15-5.16-.9-8.25-2.77-3.08-1.87-6.22-4.19-8.78-7.03-2.56-2.84-4.41-5.86-5.35-8.79-.93-2.92-.95-5.36-.38-7.58.28-1.06.68-2.16,1.23-3.28.71-1.48,1.68-3.2,2.91-5.1,1.07-1.66,2.14-3.24,3.13-4.78.99-1.54,1.7-2.89,2.11-4.09.41-1.19.35-2.11-.12-2.77,1.78-1.94,3.34-3.34,4.95-4.14,1.61-.81,3.05-1.13,4.43-.95,1.34.18,2.45.8,3.16,1.85.7,1.05.75,2.45-.04,4.14-.29.6-.66,1.2-1.11,1.8-1.3,1.73-3.03,3.43-5.03,5.13-2.01,1.71-4.11,3.48-6.19,5.39-2.08,1.92-3.92,3.99-5.29,6.24-1.36,2.26-1.92,4.65-1.46,7.3.3,1.75,1.08,3.65,2.39,5.5,1.21,1.71,2.82,3.07,4.47,3.97,1.66.91,3.23,1.35,4.61,1.35,1.41,0,2.47-.49,3.27-1.46.8-.97,1.15-2.44,1.38-4.28.22-1.84.16-4.08.41-6.56.25-2.48.79-5.26,1.98-8.21.67-1.67,1.46-3.22,2.27-4.66.8-1.44,1.82-2.85,2.99-4.26.85-1.03,1.84-2.07,2.94-3.11,2.34-2.23,4.92-4.04,7.62-5.51,2.7-1.47,5.25-2.25,7.56-1.98,2.64.31,4.56,1.4,5.4,2.9,1.68,2.85-1.22,7.48-5.74,14.14-4.7,7.2-3.06,13.56,5.26,24.6,2.01,2.65,4.11,4.68,5.64,5.14.37.11.82.37,1.3.83.48.46.88.93,1.21,1.43.33.49.56.93.67,1.32.12.4,0,.55-.37.45Z"/>
      <path class="cls-1" d="M827.61,540.48c-5.52.37-13.69-.06-20.27-6.9.33,1.3.73,2.59,1.27,3.86.94,2.17,2.72,3.05,4.67,2.67.52-.1,1.02-.06,1.51.11.49.17.97.37,1.25.61.24.22.39.55.44.83.05.28-.11.47-.5.58-8.7,2.36-14.7,2.45-20.37,1.52-.36-.06-.78-.32-1.24-.77-.46-.45-.85-.92-1.16-1.41-.31-.48-.5-.9-.57-1.26-.07-.36.1-.5.48-.42,1.44.3,1.26-1.08-.31-3.79-19.97-34.11,26.08-41.58,9.53-77.05-1.36-2.83-2.76-4.36-4.29-4.36-.42,0-.81-.2-1.16-.6-.35-.4-.61-.86-.78-1.38-.15-.48-.19-.93-.11-1.35.08-.42.34-.64.75-.64h19.11c.41,0,.73.2,1,.6.27.4.47.82.6,1.28.15.5.22.94.18,1.33-.04.39-.24.6-.65.6-1.54.02-1.61,1.54.09,4.4,12.04,20.42-10.12,32.32-11.65,45.84,2.69-3.72,4.84-6.92,8.91-9.3,4.08-2.39,8.94-3.86,12.99-4.34,3.78-.45,6.72.01,9.79,1.52,3.06,1.51,5.98,3.84,8.21,7.16,2.23,3.32,3.41,7.44,3.32,12.17-.04,2.26-.44,4.58-1.04,6.91-1.92,6.67-5.1,11.82-8.78,15.62-3.7,3.82-6.62,5.68-11.22,5.95ZM816.51,534.86c2.7-.44,4.59-1.95,7.35-4.57,2.76-2.62,6.64-6.03,8.33-11.53,1.88-6.1,1.79-12,1.4-16.3-.31-3.43-1.05-5.79-2.6-7.13-1.54-1.34-3.36-1.85-5.87-1.59-1.88.19-4.07.79-6.35,1.77-2.28.98-4.33,2.35-6.06,4.09-3.37,3.52-5.88,7.35-7.83,11.59-.23,4.88.34,9.73,1.12,15.35,1.43,3.02,3.06,5.36,4.85,6.76,1.8,1.41,3.71,1.88,5.67,1.56Z"/>
    </g>
  </g>
</svg>