<?xml version="1.0" encoding="UTF-8"?>
<svg id="Layer_1" data-name="Layer 1" xmlns="http://www.w3.org/2000/svg" viewBox="0 0 999.99 999.99">
  <defs>
    <style>
      .cls-1 {
        fill: #084734;
      }
    </style>
  </defs>
  <path class="cls-1" d="M494.6,714.72c-15.1,9.29-39.64,21.65-71.71,25.89-30.54,4.04-77.01,1.92-80.67-12.95-3.14-12.76,25.46-34.05,53.78-42.83,49.6-15.36,98.42,7.64,98.6,6.97.19-.72-61.69-13.2-122.5-42.83-35.23-17.16-101.44-55.35-95.61-72.7,5.36-15.95,72.86-18.05,127.48,9.96,61.27,31.42,90.59,92.65,90.63,92.62.08-.05-48.57-59.48-88.64-127.48-4.5-7.64-80.02-136.76-60.75-151.38,13.4-10.16,74.72,33.42,112.54,93.62,50.52,80.4,48.07,172.89,45.64,173.3-2.56.43-40.56-169.4-36.94-207.22,6.3-65.86,34.42-125.27,47.12-129.98,0,0,.13,29.29,7.92,369.02"/>
  <path class="cls-1" d="M537.56,691.19c67.17-63,90.13-85.02,134.23-147.53,27.91-39.56,58.51-111.01,50.88-174.23-6.69-55.46-31.89-104.36-99.68-111.5-31.93-3.36-71.28,17.02-96.05,63.32l10.62,369.94Z"/>
</svg>